<?xml version="1.0" encoding="utf-8"?>
<!-- Generator: Adobe Illustrator 27.2.0, SVG Export Plug-In . SVG Version: 6.00 Build 0)  -->
<svg version="1.1" id="Layer_1" xmlns="http://www.w3.org/2000/svg" xmlns:xlink="http://www.w3.org/1999/xlink" x="0px" y="0px"
	 viewBox="0 0 72 72" style="enable-background:new 0 0 72 72;" xml:space="preserve">
<style type="text/css">
	.st0{fill:#016BAF;}
	.st1{fill:#0883C6;}
	.st2{fill:#C2DBF2;}
	.st3{fill:#9BC6E9;}
	.st4{fill:#1A9AD6;}
	.st5{fill:#6BB0E1;}
</style>
<g>
	<g>
		<g>
			<polygon class="st0" points="61.57,51.45 72,51.45 66.78,42.42 			"/>
		</g>
		<g>
			<polygon class="st1" points="49.25,51.45 59.69,51.45 54.47,42.42 			"/>
		</g>
		<g>
			<polygon class="st2" points="6.16,40.79 16.59,40.79 11.37,31.75 			"/>
		</g>
		<g>
			<polygon class="st2" points="12.31,31.21 17.53,40.25 22.74,31.21 			"/>
		</g>
		<g>
			<polygon class="st3" points="30.78,20.55 36,29.58 41.21,20.55 			"/>
		</g>
		<g>
			<polygon class="st4" points="43.1,41.88 48.31,50.91 53.53,41.87 			"/>
		</g>
		<g>
			<polygon class="st4" points="48.31,31.75 43.1,40.79 53.53,40.79 			"/>
		</g>
		<g>
			<polygon class="st4" points="49.25,31.21 54.47,40.25 59.69,31.21 			"/>
		</g>
		<g>
			<polygon class="st1" points="60.63,31.75 55.41,40.79 65.84,40.79 			"/>
		</g>
		<g>
			<polygon class="st5" points="36.94,31.21 42.16,40.25 47.37,31.21 			"/>
		</g>
		<g>
			<polygon class="st5" points="30.78,40.79 41.22,40.79 36,31.75 			"/>
		</g>
		<g>
			<polygon class="st4" points="43.64,21.49 48.63,30.13 58.6,30.13 			"/>
		</g>
		<g>
			<polygon class="st5" points="42.16,21.09 36.94,30.13 47.37,30.12 			"/>
		</g>
		<g>
			<polygon class="st3" points="24.63,31.21 29.84,40.24 35.06,31.21 			"/>
		</g>
		<g>
			<polygon class="st3" points="23.69,31.76 18.47,40.79 28.9,40.79 			"/>
		</g>
		<g>
			<polygon class="st2" points="5.22,42.42 0,51.45 10.43,51.45 			"/>
		</g>
		<g>
			<polygon class="st3" points="18.47,41.88 23.68,50.91 28.9,41.88 			"/>
		</g>
		<g>
			<polygon class="st3" points="12.31,51.45 22.74,51.45 17.53,42.42 			"/>
		</g>
		<g>
			<polygon class="st2" points="6.16,41.87 11.37,50.91 16.59,41.88 			"/>
		</g>
		<g>
			<polygon class="st2" points="13.4,30.12 23.37,30.12 28.36,21.49 			"/>
		</g>
		<g>
			<polygon class="st1" points="55.41,41.87 60.63,50.91 65.84,41.87 			"/>
		</g>
		<g>
			<polygon class="st3" points="24.63,30.12 35.06,30.13 29.84,21.09 			"/>
		</g>
	</g>
</g>
</svg>
